<svg width="91" height="101" viewBox="0 0 91 101" fill="none" xmlns="http://www.w3.org/2000/svg">
<path fill-rule="evenodd" clip-rule="evenodd" d="M22 11C22 11.9844 21.8707 12.9387 21.6281 13.8467L53.9535 38.0885C55.8344 37.0522 57.8631 36.251 60 35.7246V24.2211C56.9898 22.2584 55 18.8616 55 15C55 8.92487 59.9249 4 66 4C72.0751 4 77 8.92487 77 15C77 19.664 74.0974 23.65 70 25.2501V35.3183C81.9057 37.2328 91 47.5544 91 60C91 73.8071 79.8071 85 66 85C60.4885 85 55.3935 83.2165 51.2608 80.1951L42.4795 88.9764C42.8165 89.9214 43 90.9393 43 92C43 96.9706 38.9706 101 34 101C29.0294 101 25 96.9706 25 92C25 87.0294 29.0294 83 34 83C35.3357 83 36.6035 83.291 37.7433 83.813L46.2399 75.3165C42.9554 71.0853 41 65.771 41 60C41 53.5304 43.4575 47.6347 47.49 43.1956L16.9219 20.2715C15.2124 21.3657 13.1803 22 11 22C4.92487 22 0 17.0751 0 11C0 4.92487 4.92487 0 11 0C17.0751 0 22 4.92487 22 11ZM66 75C74.2843 75 81 68.2843 81 60C81 51.7157 74.2843 45 66 45C57.7157 45 51 51.7157 51 60C51 68.2843 57.7157 75 66 75Z" fill="#50E3C2"/>
</svg>
