<svg xmlns="http://www.w3.org/2000/svg" width="512" height="512" fill="none" viewBox="0 0 512 512" id="page-not-found"><path fill="" d="M497.991 74.9897L496.641 121.04H489.251C355.421 120.07 221.601 119.1 87.7708 118.12L81.0308 118.62C81.0108 104.09 80.8008 89.4697 80.3008 74.6897C91.4608 74.4097 99.8008 74.1197 107.921 73.8297H107.931C116.491 73.5297 124.801 73.2397 135.961 72.9297C134.911 80.2997 135.061 87.8397 136.401 95.1597C136.851 97.6497 137.601 100.35 139.681 101.8C141.821 103.28 144.861 102.92 147.031 101.47C149.181 100.01 150.601 97.6897 151.591 95.2797L155.551 93.4497C155.791 94.9897 156.231 96.4597 156.971 97.8397C158.701 101.09 162.741 103.43 166.141 102C169.271 100.68 170.521 96.9797 171.261 93.6797L175.111 92.3297C175.441 93.6697 175.811 94.9997 176.251 96.3097C177.161 99.0097 178.611 101.9 181.301 102.83C184.111 103.8 187.281 102.18 189.031 99.7797C190.791 97.3797 191.441 94.3797 192.041 91.4797L194.471 90.1397C194.531 90.4497 194.601 90.7597 194.671 91.0697C195.541 94.9097 197.571 99.2897 201.481 99.8097C203.761 100.12 206.051 98.8997 207.541 97.1397C209.021 95.3797 209.831 93.1597 210.441 90.9397C212.281 84.1997 212.551 77.0397 211.201 70.1797H219.121C291.071 71.5597 426.071 73.6197 497.991 74.9897Z"></path><path fill="" d="M496.64 121.053L491.48 297.533H86.7003L80.3003 293.413C78.9503 254.053 79.7503 215.833 80.4203 177.563C80.7603 157.993 81.0603 138.403 81.0403 118.633L87.7803 118.133C221.61 119.113 355.43 120.093 489.26 121.053H496.64Z"></path><path fill="" d="M348.37 402.357C329.45 430.357 299.97 450.207 268.03 461.257 236.11 472.317 201.79 475.067 168.03 473.577 137.9 472.247 107.1 467.337 81.0905 452.087 52.0905 435.067 23.8605 399.317 16.7305 358.867-.379509 261.917 68.0605 239.997 79.5605 178.527L80.4105 177.547C79.7505 215.827 78.9405 254.037 80.2905 293.397L86.6905 297.517H102.82L94.1905 306.967C81.0405 323.227 81.4905 347.897 92.2005 365.857 102.9 383.827 122.2 395.477 142.45 400.697 162.69 405.917 183.99 405.347 204.81 403.407 232.09 400.877 260.451 395.527 281.891 378.447 303.331 361.367 315.07 329.447 301.66 305.547L296.29 297.507H361.29C362.84 301.697 364.18 305.727 364.18 305.727 374.64 337.867 367.29 374.367 348.37 402.357zM210.47 90.9433C209.86 93.1633 209.05 95.3933 207.57 97.1433 206.08 98.9033 203.79 100.123 201.51 99.8133 197.6 99.2933 195.57 94.9133 194.7 91.0733 194.63 90.7633 194.56 90.4533 194.5 90.1433L192.07 91.4833C191.46 94.3833 190.81 97.3833 189.06 99.7833 187.31 102.183 184.14 103.803 181.33 102.833 178.64 101.903 177.19 99.0133 176.28 96.3133 175.84 94.9933 175.47 93.6733 175.14 92.3333L171.29 93.6833C170.54 96.9933 169.3 100.693 166.17 102.003 162.77 103.433 158.73 101.093 157 97.8433 156.25 96.4733 155.82 94.9933 155.58 93.4533L151.62 95.2833C150.63 97.6933 149.21 100.023 147.06 101.473 144.89 102.913 141.86 103.273 139.71 101.803 137.63 100.363 136.88 97.6633 136.43 95.1633 135.09 87.8433 134.94 80.2933 135.99 72.9333 124.83 73.2333 116.51 73.5233 107.96 73.8333H107.95L107.37 70.1933C106.97 64.6333 107.23 58.6433 114.74 54.7033 122.39 50.6933 128.79 44.6933 135.82 39.6733 137 38.8333 138.3 37.9633 139.74 38.0533 141.36 38.1633 142.69 39.5333 143.19 41.0733 143.69 42.6233 143.52 44.2933 143.19 45.8933 142.22 50.7633 139.91 55.3333 136.66 59.0833L139.83 60.4933C140.42 59.6533 141.13 58.9033 141.98 58.2833 145.05 56.0133 150.35 56.5533 151.7 60.1233L157.25 63.4533C158.4 61.3133 160.15 59.4933 162.41 58.6433 165.49 57.4933 169.51 58.6633 170.85 61.6733L176.57 63.4333C177.86 61.5633 179.67 60.0533 181.85 59.4733 184.8 58.6933 188.35 60.0233 189.52 62.8233L198.23 61.5233C200.34 59.0333 204.55 59.3833 207.03 61.5033 209.52 63.6233 210.62 66.9433 211.24 70.1433 211.24 70.1633 211.25 70.1933 211.25 70.2133 212.58 77.0433 212.31 84.2033 210.47 90.9433z"></path><path fill="hsl(330.12, 100%, 45%)" d="M153.84 59.5096C151.9 54.8596 146.46 53.5996 142.09 55.5896C137.04 57.8896 135.29 64.0396 134.34 69.0096C133.14 75.2896 132.74 81.7196 133.24 88.0896C133.49 91.2396 133.83 94.4996 134.63 97.5596C135.29 100.07 136.55 102.59 138.87 103.94C141.62 105.54 145.18 105.21 147.86 103.61C150.56 101.99 152.35 99.2496 153.55 96.4196C154.02 95.2996 153.88 94.0096 152.74 93.3396C151.8 92.7896 150.14 93.0196 149.66 94.1496C148.42 97.0796 145.49 101.91 141.53 100.26C139.86 99.5596 139.26 97.6196 138.88 96.0096C138.33 93.7296 138.03 91.3696 137.82 89.0396C137.35 83.9296 137.43 78.7496 138.11 73.6696C138.65 69.6696 139.25 64.6596 141.9 61.4096C142.98 60.0796 144.4 59.1996 146.13 59.1596C147.36 59.1396 149.01 59.5296 149.5 60.7096C149.97 61.8296 150.99 62.6296 152.27 62.2796C153.33 61.9796 154.31 60.6396 153.84 59.5096Z"></path><path fill="hsl(330.12, 100%, 45%)" d="M172.759 60.5218C170.499 55.8218 164.17 54.8118 159.94 57.3118C154.62 60.4618 153.149 66.8718 152.979 72.6118C152.879 75.9318 152.95 79.2718 152.95 82.5918C152.95 85.7018 152.809 88.8618 153.119 91.9618C153.649 97.3618 156.24 103.222 162.11 104.452C165.03 105.062 167.969 104.182 169.979 101.952C171.91 99.8318 172.82 97.0018 173.45 94.2618C174.1 91.4418 169.76 90.2418 169.11 93.0618C168.48 95.7918 167.26 100.612 163.53 100.152C159.5 99.6518 157.91 95.2218 157.589 91.7418C157.12 86.6018 157.44 81.3218 157.45 76.1618C157.45 71.7418 157.24 66.5818 160.21 62.9518C161.38 61.5218 162.999 60.4218 164.899 60.4218C166.619 60.4318 168.13 61.2118 168.88 62.7718C169.41 63.8718 170.97 64.1618 171.96 63.5818C173.07 62.9418 173.289 61.6218 172.759 60.5218Z"></path><path fill="hsl(330.12, 100%, 45%)" d="M191.441 61.6696C189.211 56.7696 182.621 55.8196 178.371 58.5296C173.041 61.9296 171.761 68.3396 171.471 74.2096C171.161 80.5396 171.511 86.9696 173.011 93.1396C174.241 98.1896 176.431 104.87 182.571 105.33C185.671 105.56 188.721 103.81 190.601 101.43C192.731 98.7296 193.551 95.3696 194.241 92.0696C194.841 89.2396 190.501 88.0396 189.901 90.8696C189.141 94.4596 188.081 100.18 183.591 100.82C179.591 101.39 178.251 95.4096 177.521 92.6096C176.251 87.7296 175.831 82.6996 175.871 77.6696C175.911 73.2496 175.851 67.9396 178.681 64.2596C179.811 62.7896 181.521 61.5196 183.441 61.4696C185.231 61.4296 186.811 62.2896 187.561 63.9296C188.061 65.0396 189.671 65.3096 190.641 64.7396C191.771 64.0896 191.941 62.7796 191.441 61.6696Z"></path><path fill="hsl(330.12, 100%, 45%)" d="M192.031 69.8707C190.781 77.1407 190.861 84.6307 192.561 91.8307 193.821 97.1707 197.591 103.321 203.991 101.921 210.931 100.401 212.901 92.0607 213.781 86.0607 214.311 82.4607 214.471 78.8307 214.181 75.2107 213.911 71.8907 213.431 68.4607 212.211 65.3507 210.921 62.0807 208.751 59.2107 205.331 58.0307 202.351 57.0007 198.791 57.5307 196.621 59.9307 194.681 62.0707 197.851 65.2607 199.801 63.1107 200.941 61.8607 202.701 61.7807 204.211 62.3907 206.241 63.2107 207.461 65.3207 208.151 67.2907 209.951 72.4207 210.151 78.2607 209.601 83.6207 209.311 86.4307 208.731 89.2507 207.841 91.9207 207.121 94.0807 205.931 96.4107 203.711 97.3307 199.641 99.0107 197.621 93.6307 196.921 90.6407 195.411 84.2707 195.281 77.5207 196.391 71.0807 196.601 69.8807 196.071 68.6607 194.821 68.3107 193.721 68.0007 192.241 68.6607 192.031 69.8707zM139.37 70.5867C124.44 70.9667 109.52 71.5567 94.5999 72.0267 89.8299 72.1767 85.0599 72.3168 80.2899 72.4368 79.1099 72.4668 77.9999 73.4468 78.0399 74.6868 79.0099 103.287 78.8599 131.917 78.4299 160.527 78.0099 188.707 77.3299 216.877 77.3099 245.057 77.2899 261.177 77.4899 277.297 78.0399 293.407 78.1399 296.297 82.6399 296.307 82.5399 293.407 81.5699 264.807 81.7199 236.177 82.1499 207.567 82.5699 179.387 83.2499 151.217 83.2699 123.037 83.2899 106.917 83.0899 90.7968 82.5399 74.6868 81.7899 75.4368 81.0399 76.1868 80.2899 76.9368 95.2199 76.5568 110.14 75.9667 125.06 75.4967 129.83 75.3467 134.6 75.2067 139.37 75.0867 142.26 75.0167 142.28 70.5167 139.37 70.5867z"></path><path fill="hsl(330.12, 100%, 45%)" d="M128.489 68.1424C133.839 65.5424 138.349 61.3324 141.449 56.2724 143.019 53.7024 144.249 50.8524 144.999 47.9324 145.799 44.8124 146.299 41.1724 144.269 38.4024 141.989 35.2924 138.339 35.2724 135.299 37.2824 132.479 39.1524 129.849 41.3324 127.189 43.4124 124.459 45.5524 121.719 47.6824 118.829 49.6124 116.079 51.4524 112.989 52.7924 110.409 54.8524 105.629 58.6624 104.699 64.4324 105.089 70.2024 105.289 73.0724 109.789 73.1024 109.589 70.2024 109.329 66.4424 109.329 62.4324 112.039 59.4724 113.839 57.5124 116.279 56.4924 118.519 55.1424 121.149 53.5624 123.649 51.7624 126.089 49.9124 128.429 48.1324 130.719 46.3024 133.039 44.5124 134.199 43.6224 135.369 42.7324 136.559 41.8824 137.319 41.3324 138.649 40.0824 139.699 40.3124 142.049 40.8124 141.099 44.9224 140.749 46.3824 140.179 48.7224 139.309 50.9524 138.129 53.0524 135.389 57.9324 131.249 61.8224 126.219 64.2724 125.129 64.8024 124.829 66.3624 125.409 67.3524 126.069 68.4424 127.399 68.6724 128.489 68.1424zM219.14 72.4437C254.44 73.1137 289.74 73.7037 325.04 74.2837 364.35 74.9337 403.66 75.5837 442.96 76.2537 461.3 76.5637 479.64 76.8937 497.98 77.2437 497.23 76.4937 496.48 75.7437 495.73 74.9937 495.51 82.4137 495.3 89.8337 495.08 97.2537 494.56 114.924 494.05 132.594 493.53 150.264 492.9 171.764 492.27 193.254 491.65 214.754 491.11 233.214 490.57 251.674 490.03 270.134 489.85 276.224 489.67 282.314 489.5 288.414 489.42 291.254 488.98 294.324 489.24 297.154 489.25 297.274 489.23 297.414 489.23 297.534 489.98 296.784 490.73 296.034 491.48 295.284 487.86 295.284 484.24 295.284 480.61 295.284 470.8 295.284 460.99 295.284 451.18 295.284 436.62 295.284 422.07 295.284 407.51 295.284 389.81 295.284 372.12 295.284 354.42 295.284 335.04 295.284 315.66 295.284 296.28 295.284 276.72 295.284 257.15 295.284 237.59 295.284 219.29 295.284 200.98 295.284 182.68 295.284 167.27 295.284 151.85 295.284 136.44 295.284 125.32 295.284 114.2 295.284 103.09 295.284 97.8504 295.284 92.6004 295.184 87.3704 295.284 87.1504 295.284 86.9204 295.284 86.7004 295.284 83.8004 295.284 83.8004 299.784 86.7004 299.784 90.3204 299.784 93.9404 299.784 97.5704 299.784 107.38 299.784 117.19 299.784 127 299.784 141.56 299.784 156.11 299.784 170.67 299.784 188.37 299.784 206.06 299.784 223.76 299.784 243.14 299.784 262.52 299.784 281.9 299.784 301.46 299.784 321.03 299.784 340.59 299.784 358.89 299.784 377.2 299.784 395.5 299.784 410.91 299.784 426.33 299.784 441.74 299.784 452.86 299.784 463.98 299.784 475.09 299.784 480.33 299.784 485.58 299.884 490.81 299.784 491.03 299.784 491.26 299.784 491.48 299.784 492.72 299.784 493.69 298.754 493.73 297.534 493.95 290.114 494.16 282.694 494.38 275.274 494.9 257.604 495.41 239.934 495.93 222.264 496.56 200.764 497.19 179.274 497.81 157.774 498.35 139.314 498.89 120.854 499.43 102.394 499.69 93.4237 500.35 84.3537 500.22 75.3837 500.22 75.2537 500.23 75.1337 500.23 75.0037 500.27 73.7737 499.17 72.7737 497.98 72.7537 462.68 72.0837 427.38 71.4937 392.08 70.9137 352.77 70.2637 313.46 69.6137 274.16 68.9437 255.82 68.6337 237.48 68.3037 219.14 67.9537 216.25 67.8937 216.25 72.3937 219.14 72.4437z"></path><path fill="hsl(330.12, 100%, 45%)" d="M87.7709 120.383C140.131 120.763 192.481 121.143 244.841 121.523 296.931 121.903 349.021 122.283 401.101 122.663 430.481 122.873 459.871 123.093 489.251 123.303 492.151 123.323 492.151 118.823 489.251 118.803 436.891 118.423 384.541 118.043 332.181 117.663 280.091 117.283 228.001 116.903 175.921 116.523 146.541 116.313 117.151 116.093 87.7709 115.883 84.8809 115.863 84.8709 120.363 87.7709 120.383zM382.01 91.4722C382.32 96.9522 382.62 102.422 382.93 107.902 383 109.162 383.91 110.092 385.18 110.152 392.12 110.472 399.07 110.182 405.96 109.312 407.17 109.162 408.21 108.392 408.21 107.062 408.21 105.962 407.17 104.662 405.96 104.812 399.07 105.692 392.12 105.972 385.18 105.652 385.93 106.402 386.68 107.152 387.43 107.902 387.12 102.422 386.82 96.9522 386.51 91.4722 386.35 88.5922 381.85 88.5722 382.01 91.4722z"></path><path fill="hsl(330.12, 100%, 45%)" d="M385.5 87.7293C388.82 87.8193 392.14 87.9093 395.45 87.9893 397.11 88.0293 398.77 88.0793 400.43 88.1193 401.93 88.1593 403.49 88.0693 404.98 88.2593 405.82 88.3693 405.96 88.5093 406.01 89.3393 406.1 90.9093 405.96 92.5193 405.94 94.0893 405.88 97.4193 405.82 100.749 405.76 104.069 405.71 106.969 410.21 106.969 410.26 104.069 410.33 100.289 410.39 96.5093 410.46 92.7293 410.52 89.3993 410.9 85.5293 407.09 84.1593 405.71 83.6593 404.15 83.7193 402.7 83.6793 400.74 83.6293 398.78 83.5793 396.82 83.5193 393.05 83.4193 389.28 83.3193 385.51 83.2193 382.61 83.1593 382.61 87.6593 385.5 87.7293zM419.65 108.411C426.66 108.211 433.66 108.021 440.67 107.821 443.56 107.741 443.57 103.241 440.67 103.321 433.66 103.521 426.66 103.711 419.65 103.911 416.76 103.991 416.75 108.491 419.65 108.411zM450.669 91.4589C457.009 96.8489 463.349 102.249 469.679 107.639 470.599 108.429 471.949 108.549 472.859 107.639 473.669 106.829 473.789 105.249 472.859 104.459 466.519 99.0689 460.179 93.6689 453.849 88.2789 452.929 87.4889 451.579 87.3689 450.669 88.2789 449.869 89.0789 449.739 90.6689 450.669 91.4589z"></path><path fill="hsl(330.12, 100%, 45%)" d="M466.54 87.9107C461.24 93.8207 455.94 99.7407 450.64 105.651 449.83 106.551 449.75 107.941 450.64 108.831 451.46 109.651 453.01 109.741 453.82 108.831 459.12 102.921 464.42 97.0006 469.72 91.0906 470.53 90.1906 470.61 88.8007 469.72 87.9107 468.9 87.0807 467.35 87.0007 466.54 87.9107zM238.159 155.838C229.849 168.788 221.529 181.728 213.219 194.678 212.329 196.058 213.479 198.178 215.159 198.068 231.079 196.988 246.999 195.908 262.929 194.818 265.799 194.618 265.829 190.118 262.929 190.318 247.009 191.398 231.089 192.478 215.159 193.568 215.809 194.698 216.459 195.828 217.099 196.958 225.409 184.008 233.729 171.068 242.039 158.118 243.619 155.658 239.719 153.398 238.159 155.838z"></path><path fill="hsl(330.12, 100%, 45%)" d="M244.04 178.527C244.38 189.137 244.73 199.747 245.07 210.357 245.16 213.247 249.66 213.257 249.57 210.357 249.23 199.747 248.88 189.137 248.54 178.527 248.45 175.637 243.95 175.617 244.04 178.527zM342.36 155.838C334.05 168.788 325.73 181.728 317.42 194.678 316.53 196.058 317.68 198.178 319.36 198.068 335.28 196.988 351.2 195.908 367.13 194.818 370 194.618 370.03 190.118 367.13 190.318 351.21 191.398 335.29 192.478 319.36 193.568 320.01 194.698 320.66 195.828 321.3 196.958 329.61 184.008 337.93 171.068 346.24 158.118 347.82 155.658 343.92 153.398 342.36 155.838z"></path><path fill="hsl(330.12, 100%, 45%)" d="M348.24 178.527C348.58 189.137 348.93 199.747 349.27 210.357 349.36 213.247 353.86 213.257 353.77 210.357 353.43 199.747 353.08 189.137 352.74 178.527 352.65 175.637 348.15 175.617 348.24 178.527zM289.329 154.28C279.789 157.02 271.919 164.37 268.569 173.72 264.969 183.76 267.159 195.59 274.019 203.72 277.409 207.73 282.079 210.63 287.359 211.14 292.869 211.67 298.499 209.47 302.859 206.22 310.979 200.17 316.009 190.16 315.689 179.99 315.339 168.81 308.58 158.19 298.64 153.09 296.07 151.77 293.789 155.65 296.369 156.98 303.929 160.86 309.309 168.18 310.839 176.54 312.379 184.95 309.229 193.93 303.269 199.96 300.049 203.22 295.909 205.75 291.339 206.53 286.979 207.28 282.74 205.81 279.48 202.89 272.79 196.92 270.05 187.05 271.92 178.38 273.95 168.98 281.299 161.28 290.519 158.63 293.309 157.82 292.119 153.48 289.329 154.28zM180.16 228.847C180.42 235.387 180.68 241.917 180.94 248.457 181.06 251.347 185.56 251.357 185.44 248.457 185.18 241.917 184.92 235.387 184.66 228.847 184.55 225.967 180.05 225.947 180.16 228.847zM186.11 231.027C191.81 237.777 198.62 243.567 206.18 248.137 207.35 248.847 209.21 248.217 209.49 246.797 210.81 240.017 211.13 233.087 210.34 226.227 210.2 225.017 209.41 223.977 208.09 223.977 206.98 223.977 205.7 225.007 205.84 226.227 206.58 232.687 206.39 239.217 205.15 245.607 206.25 245.157 207.35 244.707 208.46 244.267 201.21 239.877 194.77 234.337 189.3 227.857 188.52 226.927 186.93 227.047 186.12 227.857 185.19 228.767 185.32 230.097 186.11 231.027zM224.259 227.196C219.329 227.306 215.589 231.226 214.589 235.876 213.699 239.996 214.519 244.406 217.189 247.726 219.909 251.116 224.499 252.186 228.529 250.636 232.689 249.036 235.879 245.196 236.619 240.776 237.469 235.666 235.259 230.696 231.079 227.706 230.089 226.996 228.579 227.536 227.999 228.516 227.339 229.646 227.819 230.886 228.809 231.596 233.629 235.036 233.389 242.626 228.349 245.746 227.089 246.526 225.599 246.996 224.099 246.836 222.889 246.706 221.929 246.176 221.139 245.406 219.359 243.666 218.609 241.056 218.739 238.536 218.899 235.426 220.759 231.776 224.259 231.696 227.149 231.626 227.169 227.126 224.259 227.196zM321.829 228.352C316.899 228.462 313.159 232.382 312.159 237.032 311.269 241.152 312.089 245.562 314.759 248.882 317.479 252.272 322.069 253.342 326.099 251.792 330.259 250.192 333.449 246.352 334.189 241.932 335.039 236.822 332.829 231.852 328.649 228.862 327.659 228.152 326.149 228.692 325.569 229.672 324.909 230.802 325.389 232.042 326.379 232.752 331.199 236.192 330.959 243.782 325.919 246.902 324.659 247.682 323.169 248.152 321.669 247.992 320.459 247.862 319.499 247.332 318.709 246.562 316.929 244.822 316.179 242.212 316.309 239.692 316.469 236.582 318.329 232.932 321.829 232.852 324.719 232.782 324.729 228.282 321.829 228.352zM239.021 229.602C245.861 229.642 252.691 229.682 259.531 229.722 262.431 229.742 262.431 225.242 259.531 225.222 252.691 225.182 245.861 225.142 239.021 225.102 236.121 225.092 236.121 229.592 239.021 229.602z"></path><path fill="hsl(330.12, 100%, 45%)" d="M246.091 229.23C245.881 235.76 245.661 242.28 245.451 248.81 245.361 251.71 249.861 251.7 249.951 248.81 250.161 242.28 250.381 235.76 250.591 229.23 250.681 226.33 246.181 226.33 246.091 229.23zM289.68 228.988C290.13 237.478 290.58 245.978 291.03 254.468 291.11 256.068 292.39 256.848 293.88 256.638 295.16 256.458 295.77 255.268 295.87 254.108 295.98 252.898 294.76 251.858 293.62 251.858 292.31 251.858 291.48 252.888 291.37 254.108 291.36 254.168 291.36 254.238 291.35 254.298 291.57 253.768 291.79 253.238 292.01 252.708 291.97 252.758 291.92 252.798 291.88 252.848 292.21 252.658 292.54 252.458 292.87 252.268 292.81 252.278 292.74 252.288 292.68 252.298 293.63 253.018 294.58 253.748 295.53 254.468 295.08 245.978 294.63 237.478 294.18 228.988 294.03 226.108 289.52 226.088 289.68 228.988z"></path><path fill="hsl(330.12, 100%, 45%)" d="M295.01 230.829C300.41 230.999 305.82 231.169 311.22 231.339 312.44 231.379 313.47 230.279 313.47 229.089 313.47 227.839 312.44 226.879 311.22 226.839 305.82 226.669 300.41 226.499 295.01 226.329 293.79 226.289 292.76 227.389 292.76 228.579 292.76 229.829 293.79 230.789 295.01 230.829zM296.821 241.937C301.111 241.777 305.401 241.607 309.701 241.447 310.871 241.407 312.011 240.447 311.951 239.197 311.901 238.017 310.961 236.897 309.701 236.947 305.411 237.107 301.121 237.277 296.821 237.437 295.651 237.477 294.511 238.437 294.571 239.687 294.621 240.877 295.561 241.987 296.821 241.937zM335.351 231.42C336.051 235.1 335.551 238.9 336.151 242.61 336.701 246.02 338.271 249.18 341.171 251.16 344.031 253.11 347.841 253.11 350.621 251.03 353.501 248.88 354.831 245.55 355.341 242.08 355.981 237.71 355.741 233.3 354.581 229.03 353.821 226.24 349.481 227.42 350.241 230.23 351.231 233.9 351.541 237.83 350.891 241.59 350.431 244.2 349.151 248.12 345.881 248.16 342.741 248.2 341.121 244.72 340.601 242.12 339.821 238.21 340.421 234.17 339.681 230.24 339.451 229.05 338.011 228.37 336.911 228.67 335.671 228.99 335.131 230.22 335.351 231.42zM362.121 249.629C361.641 242.899 361.571 236.159 361.911 229.419 360.631 229.949 359.351 230.479 358.071 231.009 365.011 236.559 371.281 242.899 376.751 249.909 377.801 251.259 380.151 250.439 380.511 248.919 382.291 241.359 381.501 233.659 380.591 226.039 380.451 224.829 379.661 223.789 378.341 223.789 377.241 223.789 375.941 224.829 376.091 226.039 376.951 233.209 377.851 240.599 376.171 247.729 377.421 247.399 378.681 247.069 379.931 246.739 374.461 239.739 368.191 233.399 361.251 227.839 359.731 226.629 357.511 227.369 357.411 229.429 357.071 236.169 357.141 242.909 357.621 249.639 357.711 250.849 358.591 251.889 359.871 251.889 361.021 251.879 362.211 250.849 362.121 249.629zM383.091 226.488C383.051 234.167 383.461 241.847 384.341 249.477 384.481 250.687 385.271 251.727 386.591 251.727 387.701 251.727 388.981 250.697 388.841 249.477 387.961 241.847 387.551 234.167 387.591 226.488 387.601 223.588 383.101 223.588 383.091 226.488z"></path><path fill="hsl(330.12, 100%, 45%)" d="M387.85 228.287C391.03 228.207 394.72 228.337 397.22 230.577 399.24 232.387 400.11 235.147 400.02 237.807 399.81 244.147 393.82 248.137 388.11 249.167 386.91 249.387 386.24 250.837 386.54 251.937 386.89 253.197 388.11 253.727 389.31 253.507 397.17 252.097 404.48 245.907 404.53 237.467 404.55 233.777 403.17 229.917 400.41 227.397 397 224.287 392.3 223.667 387.86 223.787 384.96 223.867 384.94 228.367 387.85 228.287zM77.4 177.931C74.44 193.601 67.28 207.711 58.57 220.931 49.87 234.141 40.01 246.571 31.81 260.111 22.65 275.241 15.9 291.721 13.26 309.281 11.67 319.891 11.4 330.631 12.23 341.321 13.22 354.041 15.43 366.721 19.64 378.791 27.97 402.641 42.88 424.461 61.98 441.001 81.97 458.311 106.73 467.811 132.58 472.231 146.44 474.601 160.49 475.691 174.54 476.071 189.5 476.481 204.5 476.011 219.37 474.311 247.01 471.151 274.27 463.691 298.63 450.021 320.63 437.671 340.21 420.351 353.4 398.701 366.92 376.511 373.67 349.621 370.44 323.701 369.65 317.401 368.33 311.191 366.38 305.141 365.5 302.391 361.15 303.571 362.04 306.341 369.91 330.821 367.43 357.731 357.37 381.211 347.46 404.311 330.26 423.591 309.7 437.811 287.97 452.851 262.94 462.221 237.06 467.131 208.77 472.501 179.33 472.931 150.72 470.141 124.5 467.581 97.79 461.131 75.79 446.051 55.95 432.451 40.04 412.831 29.63 391.231 19.19 369.551 15.02 344.781 16.52 320.811 17.63 303.061 22.77 285.981 31.15 270.331 38.6 256.411 48.17 243.841 57.18 230.941 65.96 218.371 74.13 205.221 78.84 190.531 80.04 186.791 81 182.981 81.73 179.131 82.27 176.291 77.93 175.081 77.4 177.931z"></path><path fill="hsl(330.12, 100%, 45%)" d="M92.6098 305.389C78.2398 323.329 79.2098 349.759 91.2798 368.649C104.07 388.679 126.67 400.289 149.51 404.579C163.35 407.179 177.5 407.459 191.53 406.679C204.46 405.969 217.44 404.659 230.18 402.289C253.27 398.009 277.42 389.249 292.98 370.799C306.38 354.919 314.11 331.959 306.89 311.659C306 309.159 304.91 306.739 303.62 304.419C302.21 301.889 298.33 304.149 299.73 306.689C309.65 324.549 304.71 346.519 293.61 362.609C280.71 381.309 259.03 391.099 237.53 396.149C225.85 398.899 213.92 400.389 201.97 401.419C188.55 402.579 175.01 403.099 161.58 401.769C138.89 399.529 115.83 391.129 100.53 373.549C93.4898 365.459 88.7998 355.679 87.1198 345.069C85.5098 334.919 86.8298 324.029 91.6698 314.889C92.8498 312.659 94.2198 310.519 95.7898 308.559C96.5498 307.609 96.7198 306.299 95.7898 305.379C95.0098 304.599 93.3798 304.429 92.6098 305.389Z"></path></svg>
